# xmcd
#
# Track frame offsets:
#	150
#	22693
#	37052
#	52146
#	72408
#	102372
#	126041
#	138774
#	157832
#	178533
#	193037
#	207541
#	225944
#	250223
#	263807
#	284706
#	302486
#	314626
#	339253
#
# Disc length: 4649 seconds
#
# Revision: 1
# Processed by: cddbd v1.5PL3 Copyright (c) Steve Scherf et al.
# Submitted via: EasyCDDAExtractor 5.1.0
#
DISCID=10122713
DTITLE=Tracy Chapman - Tracy Chapman Anthology
DYEAR=1900
DGENRE=Acoustic
TTITLE0=Fast Car
TTITLE1=Baby Can I Hold You
TTITLE2=Across The Lines
TTITLE3=Give Me One Reason
TTITLE4=Smoke and Ashes
TTITLE5=All That You Have Is Your Soul
TTITLE6=Born To Fight
TTITLE7=Crossroads
TTITLE8=Wedding Song
TTITLE9=For My Lover
TTITLE10=For You
TTITLE11=Freedom Now
TTITLE12=Heaven's Here On Earth
TTITLE13=If Not Now
TTITLE14=Mountains O' Things
TTITLE15=Talkin' About A Revolution
TTITLE16=The Promise
TTITLE17=Why
TTITLE18=Unknown Title
EXTD=
EXTT0=
EXTT1=
EXTT2=
EXTT3=
EXTT4=
EXTT5=
EXTT6=
EXTT7=
EXTT8=
EXTT9=
EXTT10=
EXTT11=
EXTT12=
EXTT13=
EXTT14=
EXTT15=
EXTT16=
EXTT17=
EXTT18=
PLAYORDER=
